<svg width="12" height="14" viewBox="0 0 12 14" fill="none" xmlns="http://www.w3.org/2000/svg">
<path d="M11.0499 4.77502C10.8422 4.77502 10.6429 4.85755 10.496 5.00446C10.3491 5.15136 10.2666 5.35059 10.2666 5.55834V9.10834C10.2666 9.31609 10.3491 9.51534 10.496 9.66226C10.6429 9.80918 10.8422 9.89167 11.0499 9.89167C11.2577 9.89167 11.4569 9.80918 11.6039 9.66226C11.7508 9.51534 11.8333 9.31609 11.8333 9.10834V5.55834C11.8333 5.35059 11.7508 5.15136 11.6039 5.00446C11.4569 4.85755 11.2577 4.77502 11.0499 4.77502Z" fill="black"/>
<path d="M0.949959 4.77502C0.742209 4.77502 0.542959 4.85755 0.396059 5.00446C0.249159 5.15136 0.166626 5.35059 0.166626 5.55834V9.10834C0.166626 9.31609 0.249159 9.51534 0.396059 9.66226C0.542959 9.80918 0.742209 9.89167 0.949959 9.89167C1.15771 9.89167 1.35696 9.80918 1.50386 9.66226C1.65076 9.51534 1.73329 9.31609 1.73329 9.10834V5.55834C1.73329 5.35059 1.65076 5.15136 1.50386 5.00446C1.35696 4.85755 1.15771 4.77502 0.949959 4.77502Z" fill="black"/>
<path d="M2.29993 4.77502V10.1083C2.29993 10.2254 2.32299 10.3414 2.3678 10.4496C2.41261 10.5578 2.47829 10.6561 2.56109 10.7388C2.64389 10.8217 2.74218 10.8873 2.85037 10.9322C2.95854 10.9769 3.07449 11 3.19159 11H3.75826V12.8917C3.75826 13.0994 3.84079 13.2987 3.98769 13.4456C4.13459 13.5925 4.33384 13.675 4.54159 13.675C4.74934 13.675 4.94859 13.5925 5.09551 13.4456C5.24243 13.2987 5.32493 13.0994 5.32493 12.8917V11H6.67493V12.8917C6.67493 13.0994 6.75743 13.2987 6.90434 13.4456C7.05126 13.5925 7.25051 13.675 7.45826 13.675C7.66601 13.675 7.86526 13.5925 8.01218 13.4456C8.15909 13.2987 8.24159 13.0994 8.24159 12.8917V11H8.80826C9.04476 11 9.27151 10.9061 9.43876 10.7388C9.60601 10.5717 9.69993 10.3448 9.69993 10.1083V4.77502H2.29993Z" fill="black"/>
<path d="M9.59993 3.66672C9.35468 2.8439 8.81076 2.14245 8.07493 1.70006L7.94993 1.62506L7.81659 1.55839L7.96659 1.30006L8.40826 0.466724C8.41659 0.442982 8.41709 0.417166 8.40959 0.393132C8.40209 0.369107 8.38701 0.348149 8.36659 0.333391H8.30826C8.28701 0.334349 8.26618 0.340082 8.24743 0.350182C8.22868 0.360282 8.21243 0.374482 8.19993 0.391724L7.74993 1.16672L7.60826 1.42506L7.47493 1.36672L7.33326 1.31672C6.46968 1.01701 5.53018 1.01701 4.66659 1.31672L4.53326 1.36672L4.39159 1.42506L4.24993 1.16672L3.79993 0.333391C3.79226 0.319716 3.78199 0.307674 3.76967 0.297974C3.75736 0.288266 3.74326 0.281074 3.72817 0.276824C3.71308 0.272566 3.69729 0.271324 3.68173 0.273166C3.66616 0.275007 3.6511 0.279899 3.63743 0.287557C3.62374 0.295224 3.61171 0.305499 3.602 0.317816C3.59229 0.330124 3.58511 0.344232 3.58085 0.359315C3.5766 0.374407 3.57535 0.390191 3.5772 0.405757C3.57904 0.421324 3.58393 0.436382 3.59159 0.450057L4.03326 1.28339L4.18326 1.54172L4.04993 1.60839L3.92493 1.68339C3.18557 2.1276 2.64324 2.83682 2.40826 3.66672C2.34322 3.88327 2.3068 4.1074 2.29993 4.33339H9.69993C9.69176 4.10812 9.65818 3.88448 9.59993 3.66672ZM4.33326 3.22506C4.26734 3.22506 4.20289 3.20551 4.14807 3.16888C4.09325 3.13226 4.05053 3.0802 4.0253 3.01929C4.00007 2.95838 3.99347 2.89136 4.00633 2.8267C4.01919 2.76203 4.05094 2.70264 4.09755 2.65602C4.14418 2.60941 4.20357 2.57766 4.26823 2.5648C4.33289 2.55194 4.39993 2.55854 4.46084 2.58377C4.52176 2.609 4.57376 2.65172 4.61043 2.70654C4.64701 2.76136 4.66659 2.8258 4.66659 2.89172C4.66659 2.98013 4.63151 3.06492 4.56893 3.12743C4.50643 3.18994 4.42168 3.22506 4.33326 3.22506ZM7.66659 3.22506C7.60068 3.22506 7.53618 3.20551 7.48143 3.16888C7.42659 3.13226 7.38384 3.0802 7.35859 3.01929C7.33343 2.95838 7.32676 2.89136 7.33968 2.8267C7.35251 2.76203 7.38426 2.70264 7.43093 2.65602C7.47751 2.60941 7.53693 2.57766 7.60159 2.5648C7.66626 2.55194 7.73326 2.55854 7.79418 2.58377C7.85509 2.609 7.90709 2.65172 7.94376 2.70654C7.98034 2.76136 7.99993 2.8258 7.99993 2.89172C7.99993 2.98013 7.96484 3.06492 7.90226 3.12743C7.83976 3.18994 7.75501 3.22506 7.66659 3.22506Z" fill="black"/>
</svg>
