<svg width="28" height="28" viewBox="0 0 28 28" fill="none" xmlns="http://www.w3.org/2000/svg">
<g clip-path="url(#clip0_3_887)">
<path fill-rule="evenodd" clip-rule="evenodd" d="M18.2992 4.47002C19.3199 3.28703 20.0079 1.63937 19.8197 0C18.3488 0.056 16.5693 0.939605 15.5146 2.12119C14.5675 3.16978 13.7407 4.84526 13.963 6.45244C15.6038 6.57423 17.2785 5.65439 18.2992 4.47002ZM21.9786 14.875C22.0196 19.1127 25.8575 20.5224 25.9 20.5406C25.8688 20.64 25.287 22.5493 23.8784 24.5232C22.6595 26.2284 21.3953 27.9267 19.4034 27.9631C17.447 27.9981 16.817 26.8516 14.5788 26.8516C12.3421 26.8516 11.6427 27.9265 9.79101 27.9979C7.86853 28.0665 6.4033 26.1531 5.17591 24.4535C2.6645 20.9774 0.746267 14.6301 3.3228 10.3462C4.60256 8.21962 6.88888 6.8709 9.37197 6.8373C11.2591 6.8023 13.0414 8.0541 14.1952 8.0541C15.349 8.0541 17.5149 6.54911 19.7913 6.77031C20.7441 6.80811 23.4197 7.1384 25.1369 9.54775C24.9982 9.63035 21.9446 11.3331 21.9786 14.875Z" fill="black"/>
</g>
<defs>
<clipPath id="clip0_3_887">
<rect width="28" height="28" fill="white"/>
</clipPath>
</defs>
</svg>
