<svg width="24" height="24" viewBox="0 0 24 24" fill="none" xmlns="http://www.w3.org/2000/svg">
<path d="M7.78125 15.5438C7.55625 15.7688 7.55625 16.1438 7.78125 16.3688C8.00625 16.5938 8.38125 16.5938 8.60625 16.3688L16.8 8.025C17.025 7.8 17.025 7.425 16.8 7.2C16.575 6.975 16.2 6.975 15.975 7.2L7.78125 15.5438Z" fill="#0A0A0A"/>
<path d="M15.975 16.3688C16.2 16.5938 16.575 16.5938 16.8 16.3688C17.025 16.1438 17.025 15.7688 16.8 15.5438L8.60625 7.2C8.38125 6.975 8.00625 6.975 7.78125 7.2C7.55625 7.425 7.55625 7.8 7.78125 8.025L15.975 16.3688Z" fill="#0A0A0A"/>
<path d="M12.1125 23.775C5.60625 23.775 0.318748 18.4874 0.318748 11.9812C0.318748 5.47495 5.60625 0.168701 12.1125 0.168701C18.6187 0.168701 23.9062 5.4562 23.9062 11.9625C23.9062 18.4687 18.6187 23.775 12.1125 23.775ZM12.1125 1.2937C6.225 1.2937 1.44375 6.0937 1.44375 11.9812C1.44375 17.8687 6.225 22.65 12.1125 22.65C18 22.65 22.7812 17.8687 22.7812 11.9812C22.7812 6.0937 18 1.2937 12.1125 1.2937Z" fill="#0A0A0A"/>
</svg>
