<svg width="20" height="20" viewBox="0 0 20 20" fill="none" xmlns="http://www.w3.org/2000/svg">
<g clip-path="url(#clip0_3_1044)">
<path d="M10.0188 0C4.50468 0 0.0187988 4.48588 0.0187988 10C0.0187988 15.5141 4.50468 20 10.0188 20C15.5329 20 20.0188 15.5141 20.0188 10C20.0188 4.48588 15.5317 0 10.0188 0ZM1.22468 10.5882H4.67998C4.73174 11.7929 4.92821 12.9776 5.28351 14.1176H2.22115C1.65527 13.0518 1.30821 11.8553 1.22468 10.5882ZM4.67998 9.41177H1.22468C1.30821 8.14471 1.65527 6.94824 2.22115 5.88235H5.27998C4.92586 7.02235 4.73056 8.20706 4.67998 9.41177ZM6.52586 5.88235H13.4623C13.8506 7.01765 14.0764 8.20235 14.1317 9.41177H5.85645C5.91056 8.20235 6.13762 7.01765 6.52586 5.88235ZM5.85645 10.5882H14.1329C14.0753 11.7976 13.8494 12.9824 13.46 14.1176H6.52939C6.13998 12.9824 5.91292 11.7976 5.85645 10.5882ZM15.3094 10.5882H18.8129C18.7294 11.8553 18.3823 13.0518 17.8164 14.1176H14.7059C15.0612 12.9776 15.2576 11.7929 15.3094 10.5882ZM15.3094 9.41177C15.2588 8.20706 15.0635 7.02235 14.7094 5.88235H17.8164C18.3812 6.94824 18.7282 8.14471 18.8129 9.41177H15.3094ZM17.0612 4.70588H14.2917C13.8306 3.58235 13.2141 2.52 12.4682 1.52941C14.3247 2.06706 15.9247 3.2 17.0612 4.70588ZM10.6753 1.20941C11.6447 2.26471 12.4212 3.44471 12.9953 4.70588H6.99292C7.56586 3.44588 8.34115 2.26706 9.31056 1.21176C9.54468 1.19412 9.7788 1.17647 10.0188 1.17647C10.24 1.17647 10.4576 1.19412 10.6753 1.20941ZM7.50939 1.54471C6.76939 2.53059 6.15527 3.58824 5.69762 4.70588H2.97527C4.0988 3.21529 5.67762 2.08941 7.50939 1.54471ZM2.97527 15.2941H5.70115C6.16115 16.4129 6.77762 17.4718 7.52115 18.4576C5.68468 17.9153 4.10115 16.7882 2.97527 15.2941ZM9.32468 18.7882C8.35292 17.7329 7.57409 16.5541 6.99762 15.2941H12.9906C12.4141 16.5553 11.6353 17.7353 10.6623 18.7906C10.4494 18.8059 10.2353 18.8235 10.0188 18.8235C9.78351 18.8235 9.55409 18.8059 9.32468 18.7882ZM12.4553 18.4741C13.2035 17.4835 13.8247 16.4188 14.287 15.2941H17.0612C15.9223 16.8035 14.3176 17.9376 12.4553 18.4741Z" fill="black"/>
</g>
<defs>
<clipPath id="clip0_3_1044">
<rect width="20" height="20" fill="white"/>
</clipPath>
</defs>
</svg>
