<svg width="17" height="28" viewBox="0 0 17 28" fill="none" xmlns="http://www.w3.org/2000/svg">
<path d="M3.18945 28.0001C2.55195 28.0001 2.12695 27.5859 2.12695 26.9646V24.8936C2.12695 24.2724 2.55195 23.8582 3.18945 23.8582C3.82695 23.8582 4.25195 24.2724 4.25195 24.8936V26.9646C4.25195 27.5859 3.82695 28.0001 3.18945 28.0001Z" fill="#605CD4"/>
<path d="M13.8135 27.9986C13.176 27.9986 12.751 27.5845 12.751 26.9632V24.8922C12.751 24.2709 13.176 23.8567 13.8135 23.8567C14.451 23.8567 14.876 24.2709 14.876 24.8922V26.9632C14.876 27.5845 14.451 27.9986 13.8135 27.9986Z" fill="#605CD4"/>
<path d="M0 12.436H4.25C4.25 12.436 4.00804 12.6265 3.96271 12.8004C3.9217 12.9577 3.94618 13.0644 4.01256 13.2133C4.07197 13.3466 4.25 13.5048 4.25 13.5048H0V12.436Z" fill="#605CD4"/>
<path fill-rule="evenodd" clip-rule="evenodd" d="M4.27178 12.4668C4.29764 12.4628 4.32414 12.4607 4.35114 12.4607H17V9.36037C17 7.60004 15.6187 6.25391 13.8125 6.25391H3.1875C1.38125 6.25391 0 7.60004 0 9.36037V12.4668H4.27178Z" fill="#605CD4"/>
<path fill-rule="evenodd" clip-rule="evenodd" d="M0 13.4807V20.1901H7.86092L7.47513 19.2743C7.46047 19.2593 7.4762 19.2304 7.49157 19.216C7.51428 19.2091 7.54433 19.2096 7.55899 19.2246L8.3583 20.0374L10.0931 20.0768L9.28333 18.1435C9.25506 18.0697 9.27919 18.0043 9.34034 17.9615C9.3938 17.9258 9.47624 17.9347 9.52757 17.9869L11.6102 20.1048L12.5415 20.122C12.7818 20.1264 13.3784 20.3132 13.3727 20.5473C13.3674 20.7669 12.7619 20.9461 12.5216 20.9417L12.155 20.9349V20.9357H11.5783L9.40694 22.9636C9.37619 22.9923 9.34579 23.0064 9.30073 23.0056C9.27069 23.005 9.24833 22.9973 9.21865 22.9821C9.15963 22.9371 9.13905 22.8562 9.17051 22.7982L10.0546 20.9357H8.23901L7.50081 21.6251C7.49312 21.6323 7.48543 21.6395 7.47041 21.6392C7.46674 21.6355 7.46115 21.6335 7.45557 21.6316C7.44998 21.6297 7.44439 21.6277 7.44072 21.624C7.42606 21.6091 7.41908 21.587 7.42712 21.5652L7.72914 20.9357H0V22.5177C0 24.4381 1.38125 25.9066 3.1875 25.9066H13.8125C15.6187 25.9066 17 24.4381 17 22.5177V13.4807H0Z" fill="#605CD4"/>
<path d="M4.58496 1.445C4.58496 0.646948 5.23191 0 6.02996 0V5.15908C6.02996 5.5581 5.70649 5.88158 5.30746 5.88158C4.90844 5.88158 4.58496 5.5581 4.58496 5.15908V1.445Z" fill="#605CD4"/>
<path d="M10.9641 0H12.4091V8.28391H10.9641V0Z" fill="#605CD4"/>
<path d="M4.58398 1.82324L4.58398 0.000782013L10.5815 0.000781502C11.588 0.000781416 12.404 0.816725 12.404 1.82324L4.58398 1.82324Z" fill="#605CD4"/>
</svg>
