<svg width="166" height="41" viewBox="0 0 166 41" fill="none" xmlns="http://www.w3.org/2000/svg">
<path d="M4.1124 40.7628C3.29042 40.7628 2.74243 40.2251 2.74243 39.4186V36.7304C2.74243 35.9239 3.29042 35.3862 4.1124 35.3862C4.93437 35.3862 5.48236 35.9239 5.48236 36.7304V39.4186C5.48236 40.2251 4.93437 40.7628 4.1124 40.7628Z" fill="#605CD4"/>
<path d="M17.8106 40.7613C16.9887 40.7613 16.4407 40.2237 16.4407 39.4172V36.7289C16.4407 35.9224 16.9887 35.3848 17.8106 35.3848C18.6326 35.3848 19.1806 35.9224 19.1806 36.7289V39.4172C19.1806 40.2237 18.6326 40.7613 17.8106 40.7613Z" fill="#605CD4"/>
<path d="M0 20.5601H5.47986C5.47986 20.5601 5.16788 20.8072 5.10943 21.033C5.05655 21.2373 5.08812 21.3757 5.1737 21.569C5.25031 21.742 5.47986 21.9473 5.47986 21.9473H0V20.5601Z" fill="#605CD4"/>
<path fill-rule="evenodd" clip-rule="evenodd" d="M21.9194 16.5678V20.6002H21.9159V20.592H5.61085C5.57539 20.592 5.54057 20.5948 5.50662 20.6002H0V16.5678C0 14.2828 1.78095 12.5354 4.10989 12.5354H17.8095C20.1385 12.5354 21.9194 14.2828 21.9194 16.5678Z" fill="#605CD4"/>
<path fill-rule="evenodd" clip-rule="evenodd" d="M0 21.9163V30.6252H10.1355L9.63814 29.4364C9.61923 29.4171 9.63951 29.3794 9.65933 29.3608C9.68861 29.3518 9.72735 29.3526 9.74626 29.3719L10.7769 30.4271L13.0136 30.4781L11.9696 27.9686C11.9331 27.8728 11.9642 27.7879 12.0431 27.7323C12.112 27.6861 12.2183 27.6976 12.2845 27.7653L14.9698 30.5145L16.1706 30.5368C16.4805 30.5426 17.2497 30.785 17.2424 31.089C17.2355 31.374 16.4548 31.6066 16.1449 31.6008L15.6724 31.5921V31.5929H14.9288L12.129 34.2255C12.0893 34.2627 12.0501 34.281 11.992 34.2799C11.9533 34.2792 11.9245 34.2692 11.8862 34.2495C11.8101 34.191 11.7835 34.086 11.8241 34.0107L12.9641 31.5929H10.6232L9.67124 32.488C9.66133 32.4973 9.65141 32.5066 9.63204 32.5063C9.62732 32.5014 9.62011 32.4989 9.61291 32.4964C9.6057 32.4939 9.59849 32.4914 9.59377 32.4865C9.57486 32.4672 9.56586 32.4385 9.57623 32.4102L9.96569 31.5929H0V33.6469C0 36.1396 1.78095 38.0459 4.10989 38.0459H17.8095C20.1385 38.0459 21.9194 36.1396 21.9194 33.6469V21.9163H0Z" fill="#605CD4"/>
<path d="M5.91504 6.28039C5.91504 5.2514 6.7492 4.41724 7.77819 4.41724V11.1203C7.77819 11.6348 7.36111 12.0519 6.84662 12.0519C6.33212 12.0519 5.91504 11.6348 5.91504 11.1203V6.28039Z" fill="#605CD4"/>
<path d="M14.1372 4.41724H16.0004V15.1703H14.1372V4.41724Z" fill="#605CD4"/>
<path d="M5.91479 6.78394L5.91479 4.41826L13.6321 4.41826C14.9386 4.41826 15.9977 5.47741 15.9977 6.78393L5.91479 6.78394Z" fill="#605CD4"/>
<path d="M39.4294 30.27C37.7694 30.27 36.2494 30.06 34.8694 29.64C33.4894 29.2 32.3194 28.59 31.3594 27.81L32.3494 25.35C33.3494 26.11 34.4194 26.68 35.5594 27.06C36.6994 27.44 37.9894 27.63 39.4294 27.63C41.1294 27.63 42.3794 27.33 43.1794 26.73C43.9994 26.11 44.4094 25.31 44.4094 24.33C44.4094 23.53 44.1194 22.9 43.5394 22.44C42.9594 21.96 41.9894 21.58 40.6294 21.3L37.4194 20.64C35.5194 20.24 34.0994 19.58 33.1594 18.66C32.2394 17.74 31.7794 16.5 31.7794 14.94C31.7794 13.68 32.1094 12.57 32.7694 11.61C33.4494 10.65 34.3894 9.91 35.5894 9.39C36.7894 8.85 38.1694 8.58 39.7294 8.58C41.1694 8.58 42.4994 8.8 43.7194 9.24C44.9594 9.66 46.0094 10.28 46.8694 11.1L45.8494 13.47C44.1494 11.97 42.0994 11.22 39.6994 11.22C38.2194 11.22 37.0394 11.55 36.1594 12.21C35.2994 12.87 34.8694 13.75 34.8694 14.85C34.8694 15.69 35.1394 16.36 35.6794 16.86C36.2194 17.36 37.1194 17.74 38.3794 18L41.5594 18.66C43.5594 19.08 45.0494 19.73 46.0294 20.61C47.0094 21.47 47.4994 22.64 47.4994 24.12C47.4994 25.36 47.1694 26.44 46.5094 27.36C45.8494 28.28 44.9194 29 43.7194 29.52C42.5194 30.02 41.0894 30.27 39.4294 30.27ZM54.3915 30.27C53.3715 30.27 52.4615 30.07 51.6615 29.67C50.8615 29.27 50.2215 28.73 49.7415 28.05C49.2815 27.37 49.0515 26.6 49.0515 25.74C49.0515 24.66 49.3215 23.81 49.8615 23.19C50.4215 22.57 51.3315 22.12 52.5915 21.84C53.8715 21.56 55.5915 21.42 57.7515 21.42H58.7715V20.64C58.7715 19.5 58.5315 18.68 58.0515 18.18C57.5715 17.68 56.7815 17.43 55.6815 17.43C54.8415 17.43 54.0015 17.56 53.1615 17.82C52.3215 18.06 51.4615 18.45 50.5815 18.99L49.6515 16.86C50.4115 16.32 51.3615 15.89 52.5015 15.57C53.6415 15.25 54.7315 15.09 55.7715 15.09C57.7715 15.09 59.2515 15.57 60.2115 16.53C61.1715 17.47 61.6515 18.95 61.6515 20.97V30H58.8015V27.57C58.4415 28.41 57.8815 29.07 57.1215 29.55C56.3615 30.03 55.4515 30.27 54.3915 30.27ZM54.9915 28.11C56.0715 28.11 56.9715 27.73 57.6915 26.97C58.4115 26.21 58.7715 25.25 58.7715 24.09V23.28H57.7815C56.3215 23.28 55.1715 23.35 54.3315 23.49C53.5115 23.63 52.9215 23.87 52.5615 24.21C52.2215 24.53 52.0515 24.98 52.0515 25.56C52.0515 26.32 52.3115 26.94 52.8315 27.42C53.3515 27.88 54.0715 28.11 54.9915 28.11ZM69.5048 30.27C68.4848 30.27 67.5748 30.07 66.7748 29.67C65.9748 29.27 65.3348 28.73 64.8548 28.05C64.3948 27.37 64.1648 26.6 64.1648 25.74C64.1648 24.66 64.4348 23.81 64.9748 23.19C65.5348 22.57 66.4448 22.12 67.7048 21.84C68.9848 21.56 70.7048 21.42 72.8648 21.42H73.8848V20.64C73.8848 19.5 73.6448 18.68 73.1648 18.18C72.6848 17.68 71.8948 17.43 70.7948 17.43C69.9548 17.43 69.1148 17.56 68.2748 17.82C67.4348 18.06 66.5748 18.45 65.6948 18.99L64.7648 16.86C65.5248 16.32 66.4748 15.89 67.6148 15.57C68.7548 15.25 69.8448 15.09 70.8848 15.09C72.8848 15.09 74.3648 15.57 75.3248 16.53C76.2848 17.47 76.7648 18.95 76.7648 20.97V30H73.9148V27.57C73.5548 28.41 72.9948 29.07 72.2348 29.55C71.4748 30.03 70.5648 30.27 69.5048 30.27ZM70.1048 28.11C71.1848 28.11 72.0848 27.73 72.8048 26.97C73.5248 26.21 73.8848 25.25 73.8848 24.09V23.28H72.8948C71.4348 23.28 70.2848 23.35 69.4448 23.49C68.6248 23.63 68.0348 23.87 67.6748 24.21C67.3348 24.53 67.1648 24.98 67.1648 25.56C67.1648 26.32 67.4248 26.94 67.9448 27.42C68.4648 27.88 69.1848 28.11 70.1048 28.11ZM86.1781 30.27C84.3381 30.27 82.9681 29.8 82.0681 28.86C81.1681 27.92 80.7181 26.56 80.7181 24.78V17.7H77.8681V15.36H80.7181V10.95H83.7481V15.36H88.2781V17.7H83.7481V24.54C83.7481 25.6 83.9681 26.4 84.4081 26.94C84.8681 27.48 85.6081 27.75 86.6281 27.75C86.9481 27.75 87.2581 27.72 87.5581 27.66C87.8581 27.58 88.1581 27.49 88.4581 27.39L88.9381 29.67C88.6381 29.85 88.2181 29.99 87.6781 30.09C87.1581 30.21 86.6581 30.27 86.1781 30.27ZM89.8951 30V8.85H92.9251V17.64C93.4251 16.8 94.0951 16.17 94.9351 15.75C95.7951 15.31 96.7551 15.09 97.8151 15.09C101.275 15.09 103.005 17.05 103.005 20.97V30H99.9751V21.15C99.9751 19.89 99.7251 18.97 99.2251 18.39C98.7451 17.81 97.9851 17.52 96.9451 17.52C95.7251 17.52 94.7451 17.91 94.0051 18.69C93.2851 19.45 92.9251 20.46 92.9251 21.72V30H89.8951ZM105.91 11.97V8.82H109.45V11.97H105.91ZM106.18 30V15.36H109.21V30H106.18ZM112.115 30V26.43H115.685V30H112.115ZM123.157 30.27C122.137 30.27 121.227 30.07 120.427 29.67C119.627 29.27 118.987 28.73 118.507 28.05C118.047 27.37 117.817 26.6 117.817 25.74C117.817 24.66 118.087 23.81 118.627 23.19C119.187 22.57 120.097 22.12 121.357 21.84C122.637 21.56 124.357 21.42 126.517 21.42H127.537V20.64C127.537 19.5 127.297 18.68 126.817 18.18C126.337 17.68 125.547 17.43 124.447 17.43C123.607 17.43 122.767 17.56 121.927 17.82C121.087 18.06 120.227 18.45 119.347 18.99L118.417 16.86C119.177 16.32 120.127 15.89 121.267 15.57C122.407 15.25 123.497 15.09 124.537 15.09C126.537 15.09 128.017 15.57 128.977 16.53C129.937 17.47 130.417 18.95 130.417 20.97V30H127.567V27.57C127.207 28.41 126.647 29.07 125.887 29.55C125.127 30.03 124.217 30.27 123.157 30.27ZM123.757 28.11C124.837 28.11 125.737 27.73 126.457 26.97C127.177 26.21 127.537 25.25 127.537 24.09V23.28H126.547C125.087 23.28 123.937 23.35 123.097 23.49C122.277 23.63 121.687 23.87 121.327 24.21C120.987 24.53 120.817 24.98 120.817 25.56C120.817 26.32 121.077 26.94 121.597 27.42C122.117 27.88 122.837 28.11 123.757 28.11ZM133.59 35.4V15.36H136.56V17.85C136.98 17.01 137.62 16.34 138.48 15.84C139.34 15.34 140.33 15.09 141.45 15.09C142.75 15.09 143.88 15.4 144.84 16.02C145.82 16.64 146.57 17.52 147.09 18.66C147.63 19.78 147.9 21.12 147.9 22.68C147.9 24.24 147.63 25.59 147.09 26.73C146.57 27.87 145.82 28.75 144.84 29.37C143.88 29.97 142.75 30.27 141.45 30.27C140.37 30.27 139.4 30.04 138.54 29.58C137.7 29.1 137.06 28.45 136.62 27.63V35.4H133.59ZM140.7 27.93C141.96 27.93 142.96 27.48 143.7 26.58C144.46 25.68 144.84 24.38 144.84 22.68C144.84 20.98 144.46 19.69 143.7 18.81C142.96 17.91 141.96 17.46 140.7 17.46C139.44 17.46 138.43 17.91 137.67 18.81C136.93 19.69 136.56 20.98 136.56 22.68C136.56 24.38 136.93 25.68 137.67 26.58C138.43 27.48 139.44 27.93 140.7 27.93ZM150.315 35.4V15.36H153.285V17.85C153.705 17.01 154.345 16.34 155.205 15.84C156.065 15.34 157.055 15.09 158.175 15.09C159.475 15.09 160.605 15.4 161.565 16.02C162.545 16.64 163.295 17.52 163.815 18.66C164.355 19.78 164.625 21.12 164.625 22.68C164.625 24.24 164.355 25.59 163.815 26.73C163.295 27.87 162.545 28.75 161.565 29.37C160.605 29.97 159.475 30.27 158.175 30.27C157.095 30.27 156.125 30.04 155.265 29.58C154.425 29.1 153.785 28.45 153.345 27.63V35.4H150.315ZM157.425 27.93C158.685 27.93 159.685 27.48 160.425 26.58C161.185 25.68 161.565 24.38 161.565 22.68C161.565 20.98 161.185 19.69 160.425 18.81C159.685 17.91 158.685 17.46 157.425 17.46C156.165 17.46 155.155 17.91 154.395 18.81C153.655 19.69 153.285 20.98 153.285 22.68C153.285 24.38 153.655 25.68 154.395 26.58C155.155 27.48 156.165 27.93 157.425 27.93Z" fill="#605CD4"/>
</svg>
