<svg width="24" height="24" viewBox="0 0 24 24" fill="none" xmlns="http://www.w3.org/2000/svg">
<g clip-path="url(#clip0_3_726)">
<path d="M19 3C19.5304 3 20.0391 3.21071 20.4142 3.58579C20.7893 3.96086 21 4.46957 21 5V19C21 19.5304 20.7893 20.0391 20.4142 20.4142C20.0391 20.7893 19.5304 21 19 21H5C4.46957 21 3.96086 20.7893 3.58579 20.4142C3.21071 20.0391 3 19.5304 3 19V5C3 4.46957 3.21071 3.96086 3.58579 3.58579C3.96086 3.21071 4.46957 3 5 3H19ZM18.5 18.5V13.2C18.5 12.3354 18.1565 11.5062 17.5452 10.8948C16.9338 10.2835 16.1046 9.94 15.24 9.94C14.7776 9.95592 14.3258 10.0822 13.9222 10.3084C13.5186 10.5345 13.175 10.854 12.92 11.24V10.13H10.13V18.5H12.92V13.57C12.9036 13.3769 12.9275 13.1825 12.9902 12.9991C13.0529 12.8157 13.153 12.6473 13.2841 12.5046C13.4152 12.3618 13.5746 12.2479 13.752 12.17C13.9295 12.092 14.1212 12.0518 14.315 12.0518C14.5088 12.0518 14.7005 12.092 14.878 12.17C15.0554 12.2479 15.2148 12.3618 15.3459 12.5046C15.477 12.6473 15.5771 12.8157 15.6398 12.9991C15.7025 13.1825 15.7264 13.3769 15.71 13.57V18.5H18.5ZM6.88 8.56C7.32556 8.56 7.75288 8.383 8.06794 8.06794C8.383 7.75288 8.56 7.32556 8.56 6.88C8.5779 6.64781 8.54762 6.41442 8.47106 6.19449C8.3945 5.97455 8.2733 5.77281 8.11509 5.60193C7.95687 5.43105 7.76505 5.29471 7.55165 5.20147C7.33825 5.10823 7.10788 5.0601 6.875 5.0601C6.64212 5.0601 6.41175 5.10823 6.19835 5.20147C5.98495 5.29471 5.79313 5.43105 5.63491 5.60193C5.4767 5.77281 5.3555 5.97455 5.27894 6.19449C5.20238 6.41442 5.1721 6.64781 5.19 6.88C5.19264 7.32648 5.37186 7.75377 5.68851 8.06855C6.00516 8.38333 6.43351 8.56001 6.88 8.56ZM8.27 18.5V10.13H5.5V18.5H8.27Z" fill="#0A0A0A"/>
</g>
<defs>
<clipPath id="clip0_3_726">
<rect width="24" height="24" fill="white"/>
</clipPath>
</defs>
</svg>
